<?xml version="1.0" encoding="UTF-8" standalone="no"?>
<!-- Generated by graphviz version 2.43.0 (0)
 -->

<!-- Title: coldstorageservice23Arch Pages: 1 -->

<svg
   width="1384pt"
   height="1105pt"
   viewBox="0.00 0.00 1384.00 1105.00"
   version="1.1"
   id="svg29"
   sodipodi:docname="coldstorageservice23arch.svg"
   inkscape:version="1.3 (1:1.3+202307231459+0e150ed6c4)"
   xmlns:inkscape="http://www.inkscape.org/namespaces/inkscape"
   xmlns:sodipodi="http://sodipodi.sourceforge.net/DTD/sodipodi-0.dtd"
   xmlns:xlink="http://www.w3.org/1999/xlink"
   xmlns="http://www.w3.org/2000/svg"
   xmlns:svg="http://www.w3.org/2000/svg">
  <defs
     id="defs29" />
  <sodipodi:namedview
     id="namedview29"
     pagecolor="#ffffff"
     bordercolor="#000000"
     borderopacity="0.25"
     inkscape:showpageshadow="2"
     inkscape:pageopacity="0.0"
     inkscape:pagecheckerboard="0"
     inkscape:deskcolor="#d1d1d1"
     inkscape:document-units="pt"
     inkscape:zoom="0.50105395"
     inkscape:cx="948.00172"
     inkscape:cy="815.28148"
     inkscape:window-width="945"
     inkscape:window-height="485"
     inkscape:window-x="965"
     inkscape:window-y="545"
     inkscape:window-maximized="1"
     inkscape:current-layer="graph0" />
  <g
     id="graph0"
     class="graph"
     transform="translate(145.21573,995.54241)">
    <title
       id="title1">coldstorageservice23Arch</title>
    <polygon
       fill="#ffffff"
       stroke="transparent"
       points="-144,-961 1240,-961 1240,144 -144,144 "
       id="polygon1"
       transform="matrix(0.82479203,0,0,0.74943305,108.69278,-103.89482)"
       inkscape:export-filename="polygon1.png"
       inkscape:export-xdpi="96"
       inkscape:export-ydpi="96" />
    <text
       text-anchor="middle"
       x="548"
       y="-10.4"
       font-family="Sans-Serif"
       font-size="22px"
       fill="#2d3436"
       id="text1">coldstorageservice23Arch</text>
    <g
       id="clust1"
       class="cluster">
      <title
         id="title2">cluster_env</title>
      <path
         fill="#e5f5fd"
         stroke="#aeb6be"
         d="m 20,-40 c 0,0 1064,0 1064,0 6,0 12,-6 12,-12 0,0 0,-745 0,-745 0,-6 -6,-12 -12,-12 0,0 -1064,0 -1064,0 -6,0 -12,6 -12,12 0,0 0,745 0,745 0,6 6,12 12,12"
         id="path2" />
      <text
         text-anchor="middle"
         x="27"
         y="-795.40002"
         font-family="Sans-Serif"
         font-size="12px"
         fill="#2d3436"
         id="text2">env</text>
    </g>
    <g
       id="clust2"
       class="cluster">
      <title
         id="title3">cluster_ctxbasicrobot</title>
      <path
         fill="#ffffe0"
         stroke="#aeb6be"
         d="m 934,-594 c 0,0 142,0 142,0 6,0 12,-6 12,-12 0,0 0,-162 0,-162 0,-6 -6,-12 -12,-12 0,0 -142,0 -142,0 -6,0 -12,6 -12,12 0,0 0,162 0,162 0,6 6,12 12,12"
         id="path3" />
      <text
         text-anchor="middle"
         x="1005"
         y="-758.40002"
         font-family="Sans-Serif"
         font-size="22px"
         fill="#2d3436"
         id="text3">ctxbasicrobot</text>
    </g>
    <g
       id="clust3"
       class="cluster">
      <title
         id="title4">cluster_ctx_coldstorageservice</title>
      <path
         fill="#ffffe0"
         stroke="#aeb6be"
         d="m 28,-48 c 0,0 1023,0 1023,0 6,0 12,-6 12,-12 0,0 0,-342 0,-342 0,-6 -6,-12 -12,-12 0,0 -1023,0 -1023,0 -6,0 -12,6 -12,12 0,0 0,342 0,342 0,6 6,12 12,12"
         id="path4" />
      <text
         text-anchor="middle"
         x="150.5"
         y="-392.39999"
         font-family="Sans-Serif"
         font-size="22px"
         fill="#2d3436"
         id="text4">ctx_coldstorageservice</text>
    </g>
    <!-- c2062bf705474e0db8f83e5037b16d2e -->
    <g
       id="node1"
       class="node">
      <title
         id="title5">c2062bf705474e0db8f83e5037b16d2e</title>
      <image
         xlink:href="qakicons/symActorSmall.png"
         width="101"
         height="91.146301"
         preserveAspectRatio="xMinYMin"
         x="24"
         y="-350.573"
         id="image5" />
      <text
         text-anchor="middle"
         x="74.5"
         y="-240.10001"
         font-family="Sans-Serif"
         font-size="13px"
         fill="#2d3436"
         id="text5">trolleyexecutor</text>
    </g>
    <!-- ba0bad17cb9649c18b11e55010f64cac -->
    <g
       id="node2"
       class="node">
      <title
         id="title6">ba0bad17cb9649c18b11e55010f64cac</title>
      <image
         xlink:href="qakicons/system.png"
         width="101"
         height="27.6577"
         preserveAspectRatio="xMinYMin"
         x="954"
         y="-504.82901"
         id="image6" />
    </g>
    <!-- c2062bf705474e0db8f83e5037b16d2e&#45;&gt;ba0bad17cb9649c18b11e55010f64cac -->
    <g
       id="edge1"
       class="edge">
      <title
         id="title7">c2062bf705474e0db8f83e5037b16d2e-&gt;ba0bad17cb9649c18b11e55010f64cac</title>
      <path
         fill="none"
         stroke="#ff0000"
         stroke-dasharray="1, 5"
         d="m 125.19,-342.5 c 194.17,0 879.81,0 879.81,0 0,0 0,-69.9 0,-69.9"
         id="path7" />
      <polygon
         fill="#ff0000"
         stroke="#ff0000"
         points="1001.5,-412.4 1005,-422.4 1008.5,-412.4 "
         id="polygon7" />
      <text
         text-anchor="middle"
         x="523.5"
         y="-347.10001"
         font-family="Sans-Serif"
         font-size="13px"
         fill="#ff0000"
         id="text7">alarm</text>
    </g>
    <!-- 1f916ad03a12403d98b4f9c740dcbda7 -->
    <g
       id="node4"
       class="node">
      <title
         id="title8">1f916ad03a12403d98b4f9c740dcbda7</title>
      <image
         xlink:href="qakicons/symActorSmall.png"
         width="101"
         height="91.146301"
         preserveAspectRatio="xMinYMin"
         x="954"
         y="-288.573"
         id="image8" />
      <text
         text-anchor="middle"
         x="1004.5"
         y="-178.10001"
         font-family="Sans-Serif"
         font-size="13px"
         fill="#2d3436"
         id="text8">transporttrolley</text>
    </g>
    <!-- c2062bf705474e0db8f83e5037b16d2e&#45;&gt;1f916ad03a12403d98b4f9c740dcbda7 -->
    <g
       id="edge5"
       class="edge">
      <title
         id="title9">c2062bf705474e0db8f83e5037b16d2e-&gt;1f916ad03a12403d98b4f9c740dcbda7</title>
      <path
         fill="none"
         stroke="#0000ff"
         d="m 125.16,-261.5 c 0,0 818.63,0 818.63,0"
         id="path9" />
      <polygon
         fill="#0000ff"
         stroke="#0000ff"
         points="943.79,-265 953.79,-261.5 943.79,-258 "
         id="polygon9" />
      <text
         text-anchor="start"
         x="506.5"
         y="-246.60001"
         font-family="Sans-Serif"
         font-size="13px"
         fill="#0000ff"
         id="text9">fail  </text>
    </g>
    <!-- 382560c8aea541b7807be56373453ddb -->
    <g
       id="node5"
       class="node">
      <title
         id="title10">382560c8aea541b7807be56373453ddb</title>
      <image
         xlink:href="qakicons/externalQActor.png"
         width="101"
         height="90.772202"
         preserveAspectRatio="xMinYMin"
         x="954"
         y="-716.38599"
         id="image10" />
      <text
         text-anchor="middle"
         x="1004.5"
         y="-606.09998"
         font-family="Sans-Serif"
         font-size="13px"
         fill="#2d3436"
         id="text10">basicrobot(ext)</text>
    </g>
    <!-- c2062bf705474e0db8f83e5037b16d2e&#45;&gt;382560c8aea541b7807be56373453ddb -->
    <g
       id="edge4"
       class="edge">
      <title
         id="title11">c2062bf705474e0db8f83e5037b16d2e-&gt;382560c8aea541b7807be56373453ddb</title>
      <path
         fill="none"
         stroke="#ff00ff"
         d="m 58,-373.62 c 0,-111.63 0,-320.21 0,-320.21 0,0 885.95,0 885.95,0"
         id="path11" />
      <polygon
         fill="#ff00ff"
         stroke="#ff00ff"
         points="943.95,-697.33 953.95,-693.83 943.95,-690.33 "
         id="polygon11" />
      <text
         text-anchor="start"
         x="152"
         y="-538.09998"
         font-family="Sans-Serif"
         font-size="13px"
         fill="#ff00ff"
         id="text11">engage</text>
      <text
         text-anchor="start"
         x="202"
         y="-538.09998"
         font-family="Sans-Serif"
         font-size="13px"
         fill="#006400"
         id="text12">engagedone engagerefused</text>
      <text
         text-anchor="start"
         x="393"
         y="-538.09998"
         font-family="Sans-Serif"
         font-size="13px"
         fill="#ff00ff"
         id="text13">  moverobot</text>
      <text
         text-anchor="start"
         x="807"
         y="-538.09998"
         font-family="Sans-Serif"
         font-size="13px"
         fill="#006400"
         id="text16">robotstate</text>
      <text
         text-anchor="start"
         x="479"
         y="-538.09998"
         font-family="Sans-Serif"
         font-size="13px"
         fill="#006400"
         id="text14">moverobotdone moverobotfailed</text>
      <text
         text-anchor="start"
         x="702"
         y="-538.09998"
         font-family="Sans-Serif"
         font-size="13px"
         fill="#ff00ff"
         id="text15">  getrobotstate</text>
      <polyline
         fill="none"
         stroke="#ff00ff"
         points="895,-550 152,-550 523.68,-693.83 "
         id="polyline17" />
    </g>
    <!-- c2062bf705474e0db8f83e5037b16d2e&#45;&gt;382560c8aea541b7807be56373453ddb -->
    <g
       id="edge6"
       class="edge">
      <title
         id="title17">c2062bf705474e0db8f83e5037b16d2e-&gt;382560c8aea541b7807be56373453ddb</title>
      <path
         fill="none"
         stroke="#0000ff"
         d="m 92,-373.62 c 0,-100.14 0,-274.55 0,-274.55 0,0 851.81,0 851.81,0"
         id="path17" />
      <polygon
         fill="#0000ff"
         stroke="#0000ff"
         points="943.81,-651.67 953.81,-648.17 943.81,-644.67 "
         id="polygon17" />
      <text
         text-anchor="start"
         x="458.5"
         y="-634.46802"
         font-family="Sans-Serif"
         font-size="13px"
         fill="#0000ff"
         id="text18">setrobotstate  </text>
      <text
         text-anchor="start"
         x="551.11505"
         y="-634.46802"
         font-family="Sans-Serif"
         font-size="13px"
         fill="#0000ff"
         id="text18-6">disengage </text>
    </g>
    <!-- 7260294742b84e379147ccd212b051e9 -->
    <g
       id="node3"
       class="node">
      <title
         id="title18">7260294742b84e379147ccd212b051e9</title>
      <image
         xlink:href="qakicons/symActorSmall.png"
         width="101"
         height="91.146301"
         preserveAspectRatio="xMinYMin"
         x="24"
         y="-170.573"
         id="image18" />
      <text
         text-anchor="middle"
         x="74.5"
         y="-60.099998"
         font-family="Sans-Serif"
         font-size="13px"
         fill="#2d3436"
         id="text19">coldstorageservice</text>
    </g>
    <!-- 7260294742b84e379147ccd212b051e9&#45;&gt;1f916ad03a12403d98b4f9c740dcbda7 -->
    <g
       id="edge2"
       class="edge"
       transform="translate(0,69)">
      <title
         id="title19">7260294742b84e379147ccd212b051e9-&gt;1f916ad03a12403d98b4f9c740dcbda7</title>
      <path
         fill="none"
         stroke="#ff00ff"
         d="m 125.16,-184 c 0,0 884.0221,0 884.0221,0"
         id="path19"
         style="stroke-width:1.03917" />
      <path
         fill="none"
         stroke="#ff00ff"
         d="m 1009.0332,-184.5522 c 0,0 0,-50.52403 0,-50.52403"
         id="path19-3"
         style="stroke-width:0.24843" />
      <polygon
         fill="#ff00ff"
         stroke="#ff00ff"
         points="953.79,-184 943.79,-180.5 943.79,-187.5 "
         id="polygon19"
         transform="rotate(-90,950.71303,-242.21617)" />
      <text
         text-anchor="start"
         x="228.5"
         y="-141.10001"
         font-family="Sans-Serif"
         font-size="13px"
         fill="#ff00ff"
         id="text20">deposit</text>
      <text
         text-anchor="start"
         x="277.5"
         y="-141.10001"
         font-family="Sans-Serif"
         font-size="13px"
         fill="#006400"
         id="text21">chargetakentt chargefailedtt</text>
      <text
         text-anchor="start"
         x="473.5"
         y="-141.10001"
         font-family="Sans-Serif"
         font-size="13px"
         fill="#ff00ff"
         id="text22">  depositstatus</text>
      <text
         text-anchor="start"
         x="576.5"
         y="-141.10001"
         font-family="Sans-Serif"
         font-size="13px"
         fill="#006400"
         id="text23">chargedeposited chargedepfailed</text>
      <polyline
         fill="none"
         stroke="#ff00ff"
         points="818.5,-153 228.5,-153 523.69,-184 "
         id="polyline24" />
    </g>
    <!-- 1f916ad03a12403d98b4f9c740dcbda7&#45;&gt;c2062bf705474e0db8f83e5037b16d2e -->
    <g
       id="edge3"
       class="edge">
      <title
         id="title24">1f916ad03a12403d98b4f9c740dcbda7-&gt;c2062bf705474e0db8f83e5037b16d2e</title>
      <path
         fill="none"
         stroke="#ff00ff"
         d="m 953.84,-286.5 c 0,0 -818.63,0 -818.63,0"
         id="path24" />
      <polygon
         fill="#ff00ff"
         stroke="#ff00ff"
         points="135.21,-283 125.21,-286.5 135.21,-290 "
         id="polygon24" />
      <text
         text-anchor="start"
         x="289"
         y="-309.60001"
         font-family="Sans-Serif"
         font-size="13px"
         fill="#ff00ff"
         id="text25">move</text>
      <text
         text-anchor="start"
         x="326"
         y="-309.60001"
         font-family="Sans-Serif"
         font-size="13px"
         fill="#006400"
         id="text26">movedone movefailed</text>
      <text
         text-anchor="start"
         x="479"
         y="-309.60001"
         font-family="Sans-Serif"
         font-size="13px"
         fill="#ff00ff"
         id="text27">  moveclosest</text>
      <text
         text-anchor="start"
         x="576"
         y="-309.60001"
         font-family="Sans-Serif"
         font-size="13px"
         fill="#006400"
         id="text28">movecdone movecfailed</text>
      <text
         text-anchor="start"
         x="744"
         y="-309.60001"
         font-family="Sans-Serif"
         font-size="13px"
         fill="#ff00ff"
         id="text29"> </text>
      <polyline
         fill="none"
         stroke="#ff00ff"
         points="758,-305 289,-305 523.55,-286.5 "
         id="polyline29" />
    </g>
  </g>
</svg>
