<?xml version="1.0" encoding="UTF-8" standalone="no"?>
<!-- Generated by graphviz version 2.43.0 (0)
 -->

<!-- Title: coldstorageservice23Arch Pages: 1 -->

<svg
   width="1384pt"
   height="1105pt"
   viewBox="0.00 0.00 1384.00 1105.00"
   version="1.1"
   id="svg29"
   sodipodi:docname="coldstorageservice23arch.svg"
   inkscape:version="1.3 (1:1.3+202307231459+0e150ed6c4)"
   xmlns:inkscape="http://www.inkscape.org/namespaces/inkscape"
   xmlns:sodipodi="http://sodipodi.sourceforge.net/DTD/sodipodi-0.dtd"
   xmlns:xlink="http://www.w3.org/1999/xlink"
   xmlns="http://www.w3.org/2000/svg"
   xmlns:svg="http://www.w3.org/2000/svg">
  <defs
     id="defs29" />
  <sodipodi:namedview
     id="namedview29"
     pagecolor="#ffffff"
     bordercolor="#000000"
     borderopacity="0.25"
     inkscape:showpageshadow="2"
     inkscape:pageopacity="0.0"
     inkscape:pagecheckerboard="0"
     inkscape:deskcolor="#d1d1d1"
     inkscape:document-units="pt"
     inkscape:zoom="0.38202963"
     inkscape:cx="1084.9944"
     inkscape:cy="871.66013"
     inkscape:window-width="1900"
     inkscape:window-height="1020"
     inkscape:window-x="10"
     inkscape:window-y="10"
     inkscape:window-maximized="1"
     inkscape:current-layer="graph0" />
  <g
     id="graph0"
     class="graph"
     transform="scale(1 1) rotate(0) translate(144 961)">
    <title
       id="title1">coldstorageservice23Arch</title>
    <polygon
       fill="#ffffff"
       stroke="transparent"
       points="1240,-961 1240,144 -144,144 -144,-961 "
       id="polygon1"
       transform="matrix(0.84337149,0,0,0.80566761,85.646471,-63.746177)"
       inkscape:export-filename="polygon1.png"
       inkscape:export-xdpi="96"
       inkscape:export-ydpi="96" />
    <text
       text-anchor="middle"
       x="548"
       y="25.6"
       font-family="Sans-Serif"
       font-size="22px"
       fill="#2d3436"
       id="text1">coldstorageservice23Arch</text>
    <g
       id="clust1"
       class="cluster"
       transform="matrix(0.99997422,0,0,1.0569121,0.01423076,46.0559)">
      <title
         id="title2">cluster_env</title>
      <path
         fill="#e5f5fd"
         stroke="#aeb6be"
         d="m 20,-40 c 0,0 1064,0 1064,0 6,0 12,-6 12,-12 0,0 0,-745 0,-745 0,-6 -6,-12 -12,-12 0,0 -1064,0 -1064,0 -6,0 -12,6 -12,12 0,0 0,745 0,745 0,6 6,12 12,12"
         id="path2" />
      <text
         text-anchor="middle"
         x="27"
         y="-795.40002"
         font-family="Sans-Serif"
         font-size="12px"
         fill="#2d3436"
         id="text2">env</text>
    </g>
    <g
       id="clust2"
       class="cluster">
      <title
         id="title3">cluster_ctxbasicrobot</title>
      <path
         fill="lightyellow"
         stroke="#aeb6be"
         d="M934,-594C934,-594 1076,-594 1076,-594 1082,-594 1088,-600 1088,-606 1088,-606 1088,-768 1088,-768 1088,-774 1082,-780 1076,-780 1076,-780 934,-780 934,-780 928,-780 922,-774 922,-768 922,-768 922,-606 922,-606 922,-600 928,-594 934,-594"
         id="path3" />
      <text
         text-anchor="middle"
         x="1005"
         y="-758.4"
         font-family="Sans-Serif"
         font-size="22.00"
         fill="#2d3436"
         id="text3">ctxbasicrobot</text>
    </g>
    <g
       id="clust3"
       class="cluster"
       transform="matrix(0.99994966,0,0,1.1082538,0.02716041,44.843415)">
      <title
         id="title4">cluster_ctx_coldstorageservice</title>
      <path
         fill="#ffffe0"
         stroke="#aeb6be"
         d="m 28,-48 c 0,0 1023,0 1023,0 6,0 12,-6 12,-12 0,0 0,-342 0,-342 0,-6 -6,-12 -12,-12 0,0 -1023,0 -1023,0 -6,0 -12,6 -12,12 0,0 0,342 0,342 0,6 6,12 12,12"
         id="path4" />
      <text
         text-anchor="middle"
         x="150.5"
         y="-392.39999"
         font-family="Sans-Serif"
         font-size="22px"
         fill="#2d3436"
         id="text4">ctx_coldstorageservice</text>
    </g>
    <!-- 95a8a68cf77448cfadf12dd12f265038 -->
    <g
       id="node1"
       class="node">
      <title
         id="title5">95a8a68cf77448cfadf12dd12f265038</title>
      <image
         xlink:href="qakicons/symActorSmall.png"
         width="101px"
         height="91.1463px"
         preserveAspectRatio="xMinYMin meet"
         x="24"
         y="-350.573"
         id="image5" />
      <text
         text-anchor="middle"
         x="74.5"
         y="-240.1"
         font-family="Sans-Serif"
         font-size="13.00"
         fill="#2d3436"
         id="text5">trolleyexecutor</text>
    </g>
    <!-- 9cbb89fdcefd4eb384277683304aea79 -->
    <g
       id="node2"
       class="node">
      <title
         id="title6">9cbb89fdcefd4eb384277683304aea79</title>
      <image
         xlink:href="qakicons/system.png"
         width="101px"
         height="27.6577px"
         preserveAspectRatio="xMinYMin meet"
         x="954"
         y="-504.829"
         id="image6" />
    </g>
    <!-- 95a8a68cf77448cfadf12dd12f265038&#45;&gt;9cbb89fdcefd4eb384277683304aea79 -->
    <g
       id="edge1"
       class="edge">
      <title
         id="title7">95a8a68cf77448cfadf12dd12f265038-&gt;9cbb89fdcefd4eb384277683304aea79</title>
      <path
         fill="none"
         stroke="red"
         stroke-dasharray="1,5"
         d="M125.19,-342.5C319.36,-342.5 1005,-342.5 1005,-342.5 1005,-342.5 1005,-412.4 1005,-412.4"
         id="path7" />
      <polygon
         fill="red"
         stroke="red"
         points="1001.5,-412.4 1005,-422.4 1008.5,-412.4 1001.5,-412.4"
         id="polygon7" />
      <text
         text-anchor="middle"
         x="557.13947"
         y="-348.66565"
         font-family="Sans-Serif"
         font-size="13px"
         fill="#ff0000"
         id="text7">alarm</text>
    </g>
    <!-- d237b13319684b60b9cf1d1d7a807971 -->
    <g
       id="node4"
       class="node">
      <title
         id="title8">d237b13319684b60b9cf1d1d7a807971</title>
      <image
         xlink:href="qakicons/symActorSmall.png"
         width="101px"
         height="91.1463px"
         preserveAspectRatio="xMinYMin meet"
         x="954"
         y="-288.573"
         id="image8" />
      <text
         text-anchor="middle"
         x="1004.5"
         y="-178.1"
         font-family="Sans-Serif"
         font-size="13.00"
         fill="#2d3436"
         id="text8">transporttrolley</text>
    </g>
    <!-- 95a8a68cf77448cfadf12dd12f265038&#45;&gt;d237b13319684b60b9cf1d1d7a807971 -->
    <g
       id="edge5"
       class="edge">
      <title
         id="title9">95a8a68cf77448cfadf12dd12f265038-&gt;d237b13319684b60b9cf1d1d7a807971</title>
      <path
         fill="none"
         stroke="blue"
         d="M125.16,-261.5C125.16,-261.5 943.79,-261.5 943.79,-261.5"
         id="path9" />
      <polygon
         fill="blue"
         stroke="blue"
         points="943.79,-265 953.79,-261.5 943.79,-258 943.79,-265"
         id="polygon9" />
      <text
         text-anchor="start"
         x="506.5"
         y="-246.6"
         font-family="Sans-Serif"
         font-size="13.00"
         fill="blue"
         id="text9">fail   </text>
    </g>
    <!-- 691bf11465284567a7d957b8b2b3564b -->
    <g
       id="node5"
       class="node">
      <title
         id="title10">691bf11465284567a7d957b8b2b3564b</title>
      <image
         xlink:href="qakicons/externalQActor.png"
         width="101px"
         height="90.7722px"
         preserveAspectRatio="xMinYMin meet"
         x="954"
         y="-716.386"
         id="image10" />
      <text
         text-anchor="middle"
         x="1004.5"
         y="-606.1"
         font-family="Sans-Serif"
         font-size="13.00"
         fill="#2d3436"
         id="text10">basicrobot(ext)</text>
    </g>
    <!-- 95a8a68cf77448cfadf12dd12f265038&#45;&gt;691bf11465284567a7d957b8b2b3564b -->
    <g
       id="edge4"
       class="edge">
      <title
         id="title11">95a8a68cf77448cfadf12dd12f265038-&gt;691bf11465284567a7d957b8b2b3564b</title>
      <path
         fill="none"
         stroke="magenta"
         d="M58,-373.62C58,-485.25 58,-693.83 58,-693.83 58,-693.83 943.95,-693.83 943.95,-693.83"
         id="path11" />
      <polygon
         fill="magenta"
         stroke="magenta"
         points="943.95,-697.33 953.95,-693.83 943.95,-690.33 943.95,-697.33"
         id="polygon11" />
      <text
         text-anchor="start"
         x="152"
         y="-554.6"
         font-family="Sans-Serif"
         font-size="13.00"
         fill="magenta"
         id="text11">engage</text>
      <text
         text-anchor="start"
         x="202"
         y="-554.6"
         font-family="Sans-Serif"
         font-size="13.00"
         fill="darkgreen"
         id="text12"> engagedone engagerefused</text>
      <text
         text-anchor="start"
         x="393"
         y="-554.6"
         font-family="Sans-Serif"
         font-size="13.00"
         fill="magenta"
         id="text13">   moverobot</text>
      <text
         text-anchor="start"
         x="479"
         y="-554.6"
         font-family="Sans-Serif"
         font-size="13.00"
         fill="darkgreen"
         id="text14"> moverobotdone moverobotfailed</text>
      <text
         text-anchor="start"
         x="702"
         y="-554.6"
         font-family="Sans-Serif"
         font-size="13.00"
         fill="magenta"
         id="text15">   getrobotstate</text>
      <text
         text-anchor="start"
         x="807"
         y="-554.6"
         font-family="Sans-Serif"
         font-size="13.00"
         fill="darkgreen"
         id="text16"> robotstate</text>
      <text
         text-anchor="start"
         x="881"
         y="-554.6"
         font-family="Sans-Serif"
         font-size="13.00"
         fill="magenta"
         id="text17">   </text>
      <polyline
         fill="none"
         stroke="magenta"
         points="895,-550 152,-550 523.68,-693.83 "
         id="polyline17" />
    </g>
    <!-- 95a8a68cf77448cfadf12dd12f265038&#45;&gt;691bf11465284567a7d957b8b2b3564b -->
    <g
       id="edge6"
       class="edge">
      <title
         id="title17">95a8a68cf77448cfadf12dd12f265038-&gt;691bf11465284567a7d957b8b2b3564b</title>
      <path
         fill="none"
         stroke="blue"
         d="M92,-373.62C92,-473.76 92,-648.17 92,-648.17 92,-648.17 943.81,-648.17 943.81,-648.17"
         id="path17" />
      <polygon
         fill="blue"
         stroke="blue"
         points="943.81,-651.67 953.81,-648.17 943.81,-644.67 943.81,-651.67"
         id="polygon17" />
      <text
         text-anchor="start"
         x="491.61826"
         y="-652.80841"
         font-family="Sans-Serif"
         font-size="13px"
         fill="#0000ff"
         id="text18">setrobotstate  </text>
    </g>
    <!-- 1e4eb3ffe3e64adea92ef8a3c40c7db2 -->
    <g
       id="node3"
       class="node"
       transform="translate(0.78327218,46.875423)">
      <title
         id="title18">1e4eb3ffe3e64adea92ef8a3c40c7db2</title>
      <image
         xlink:href="qakicons/symActorSmall.png"
         width="101"
         height="91.146301"
         preserveAspectRatio="xMinYMin"
         x="24"
         y="-170.573"
         id="image18" />
      <text
         text-anchor="middle"
         x="74.5"
         y="-60.099998"
         font-family="Sans-Serif"
         font-size="13px"
         fill="#2d3436"
         id="text19">coldstorageservice</text>
    </g>
    <!-- 1e4eb3ffe3e64adea92ef8a3c40c7db2&#45;&gt;d237b13319684b60b9cf1d1d7a807971 -->
    <g
       id="edge2"
       class="edge">
      <title
         id="title19">1e4eb3ffe3e64adea92ef8a3c40c7db2-&gt;d237b13319684b60b9cf1d1d7a807971</title>
      <path
         fill="none"
         stroke="#ff00ff"
         d="m 74.280699,-235.3991 0.15845,51.18909 L 943.79,-184"
         id="path19"
         sodipodi:nodetypes="ccc" />
      <polygon
         fill="magenta"
         stroke="magenta"
         points="943.79,-187.5 953.79,-184 943.79,-180.5 943.79,-187.5"
         id="polygon19" />
      <text
         text-anchor="start"
         x="228.5"
         y="-139.60001"
         font-family="Sans-Serif"
         font-size="13px"
         fill="#ff00ff"
         id="text20">deposit</text>
      <text
         text-anchor="start"
         x="277.5"
         y="-139.60001"
         font-family="Sans-Serif"
         font-size="13px"
         fill="#006400"
         id="text21">chargetakentt chargefailedtt</text>
      <text
         text-anchor="start"
         x="473.5"
         y="-139.60001"
         font-family="Sans-Serif"
         font-size="13px"
         fill="#ff00ff"
         id="text22">  depositstatus</text>
      <text
         text-anchor="start"
         x="576.5"
         y="-139.60001"
         font-family="Sans-Serif"
         font-size="13px"
         fill="#006400"
         id="text23">chargedeposited chargedepfailed</text>
      <text
         text-anchor="start"
         x="804.5"
         y="-157.6"
         font-family="Sans-Serif"
         font-size="13.00"
         fill="magenta"
         id="text24">   </text>
      <polyline
         fill="none"
         stroke="#ff00ff"
         points="818.5,-153 228.5,-153 523.69,-184 "
         id="polyline24"
         transform="translate(-13.855683,1.1099125)" />
    </g>
    <!-- d237b13319684b60b9cf1d1d7a807971&#45;&gt;95a8a68cf77448cfadf12dd12f265038 -->
    <g
       id="edge3"
       class="edge">
      <title
         id="title24">d237b13319684b60b9cf1d1d7a807971-&gt;95a8a68cf77448cfadf12dd12f265038</title>
      <path
         fill="none"
         stroke="magenta"
         d="M953.84,-286.5C953.84,-286.5 135.21,-286.5 135.21,-286.5"
         id="path24" />
      <polygon
         fill="magenta"
         stroke="magenta"
         points="135.21,-283 125.21,-286.5 135.21,-290 135.21,-283"
         id="polygon24" />
      <text
         text-anchor="start"
         x="289"
         y="-309.6"
         font-family="Sans-Serif"
         font-size="13.00"
         fill="magenta"
         id="text25">move</text>
      <text
         text-anchor="start"
         x="326"
         y="-309.6"
         font-family="Sans-Serif"
         font-size="13.00"
         fill="darkgreen"
         id="text26"> movedone movefailed</text>
      <text
         text-anchor="start"
         x="479"
         y="-309.6"
         font-family="Sans-Serif"
         font-size="13.00"
         fill="magenta"
         id="text27">   moveclosest</text>
      <text
         text-anchor="start"
         x="576"
         y="-309.6"
         font-family="Sans-Serif"
         font-size="13.00"
         fill="darkgreen"
         id="text28"> movecdone movecfailed</text>
      <text
         text-anchor="start"
         x="744"
         y="-309.6"
         font-family="Sans-Serif"
         font-size="13.00"
         fill="magenta"
         id="text29">   </text>
      <polyline
         fill="none"
         stroke="magenta"
         points="758,-305 289,-305 523.55,-286.5 "
         id="polyline29" />
    </g>
  </g>
</svg>
