<?xml version="1.0" encoding="UTF-8" standalone="no"?>
<!-- Generated by graphviz version 2.43.0 (0)
 -->

<!-- Title: coldstorageservice23Arch Pages: 1 -->

<svg
   width="1514pt"
   height="925pt"
   viewBox="0.00 0.00 1514.00 925.00"
   version="1.1"
   id="svg17"
   sodipodi:docname="css23modelSimpleCSS-TTarch.svg"
   inkscape:version="1.3 (1:1.3+202307231459+0e150ed6c4)"
   xmlns:inkscape="http://www.inkscape.org/namespaces/inkscape"
   xmlns:sodipodi="http://sodipodi.sourceforge.net/DTD/sodipodi-0.dtd"
   xmlns:xlink="http://www.w3.org/1999/xlink"
   xmlns="http://www.w3.org/2000/svg"
   xmlns:svg="http://www.w3.org/2000/svg">
  <defs
     id="defs17" />
  <sodipodi:namedview
     id="namedview17"
     pagecolor="#ffffff"
     bordercolor="#000000"
     borderopacity="0.25"
     inkscape:showpageshadow="2"
     inkscape:pageopacity="0.0"
     inkscape:pagecheckerboard="0"
     inkscape:deskcolor="#d1d1d1"
     inkscape:document-units="pt"
     showgrid="false"
     inkscape:zoom="0.29103369"
     inkscape:cx="984.42213"
     inkscape:cy="230.2139"
     inkscape:window-width="1900"
     inkscape:window-height="1002"
     inkscape:window-x="10"
     inkscape:window-y="28"
     inkscape:window-maximized="1"
     inkscape:current-layer="graph0" />
  <g
     id="graph0"
     class="graph"
     transform="scale(1 1) rotate(0) translate(144 781)">
    <title
       id="title1">coldstorageservice23Arch</title>
    <polygon
       fill="#ffffff"
       stroke="transparent"
       points="1370,144 -144,144 -144,-781 1370,-781 "
       id="polygon1"
       transform="matrix(0.53094435,0,0,0.72809945,-67.544013,-70.475737)"
       inkscape:export-filename="polygon1.png"
       inkscape:export-xdpi="96"
       inkscape:export-ydpi="96" />
    <!-- 5320e4072e2744538a3c2a4165d636c4 -->
    <!-- fbc9e5e2232744f98be824fe796a40b6 -->
    <!-- 5320e4072e2744538a3c2a4165d636c4&#45;&gt;fbc9e5e2232744f98be824fe796a40b6 -->
    <!-- 42907b70a2ad4037a4c3e664121585f6 -->
    <!-- 42907b70a2ad4037a4c3e664121585f6&#45;&gt;5320e4072e2744538a3c2a4165d636c4 -->
    <!-- 18abb4d2ffe84464901253ce6c545164 -->
    <!-- 89ff512756a84924ab8d45ac34e4ee07 -->
    <text
       text-anchor="middle"
       x="234.85103"
       y="12.335305"
       font-family="Sans-Serif"
       font-size="22px"
       fill="#2d3436"
       id="text1">coldstorageservice23Arch</text>
    <g
       id="clust1"
       class="cluster"
       transform="matrix(0.60848475,0,0,1.0003732,-117.7654,22.860131)">
      <title
         id="title2">cluster_env</title>
      <path
         fill="#e5f5fd"
         stroke="#aeb6be"
         d="m 12,-40 c 0,0 1194,0 1194,0 6,0 12,-6 12,-12 0,0 0,-565 0,-565 0,-6 -6,-12 -12,-12 0,0 -1194,0 -1194,0 -6,0 -12,6 -12,12 0,0 0,565 0,565 0,6 6,12 12,12"
         id="path2" />
      <text
         text-anchor="middle"
         x="19"
         y="-615.40002"
         font-family="Sans-Serif"
         font-size="12px"
         fill="#2d3436"
         id="text2">env</text>
    </g>
    <g
       id="clust2"
       class="cluster"
       transform="translate(-117.6555,22.735304)">
      <title
         id="title3">cluster_ctxbasicrobot</title>
      <path
         fill="#ffffe0"
         stroke="#aeb6be"
         d="m 20,-414 c 0,0 142,0 142,0 6,0 12,-6 12,-12 0,0 0,-162 0,-162 0,-6 -6,-12 -12,-12 0,0 -142,0 -142,0 -6,0 -12,6 -12,12 0,0 0,162 0,162 0,6 6,12 12,12"
         id="path3" />
      <text
         text-anchor="middle"
         x="91"
         y="-578.40002"
         font-family="Sans-Serif"
         font-size="22px"
         fill="#2d3436"
         id="text3">ctxbasicrobot</text>
    </g>
    <g
       id="clust3"
       class="cluster"
       transform="translate(-645.797,177.37343)">
      <title
         id="title4">cluster_ctx_coldstorageservice</title>
      <path
         fill="#ffffe0"
         stroke="#aeb6be"
         d="m 789,-220 c 0,0 409,0 409,0 6,0 12,-6 12,-12 0,0 0,-162 0,-162 0,-6 -6,-12 -12,-12 0,0 -409,0 -409,0 -6,0 -12,6 -12,12 0,0 0,162 0,162 0,6 6,12 12,12"
         id="path4" />
      <text
         text-anchor="middle"
         x="911.5"
         y="-384.39999"
         font-family="Sans-Serif"
         font-size="22px"
         fill="#2d3436"
         id="text4">ctx_coldstorageservice</text>
    </g>
    <g
       id="clust4"
       class="cluster"
       transform="translate(-117.6555,22.735304)">
      <title
         id="title5">cluster_ctx_access</title>
      <path
         fill="#ffffe0"
         stroke="#aeb6be"
         d="m 35,-220 c 0,0 111,0 111,0 6,0 12,-6 12,-12 0,0 0,-162 0,-162 0,-6 -6,-12 -12,-12 0,0 -111,0 -111,0 -6,0 -12,6 -12,12 0,0 0,162 0,162 0,6 6,12 12,12"
         id="path5" />
      <text
         text-anchor="middle"
         x="90.5"
         y="-384.39999"
         font-family="Sans-Serif"
         font-size="22px"
         fill="#2d3436"
         id="text5">ctx_access</text>
    </g>
    <g
       id="node1"
       class="node"
       transform="translate(-645.797,177.37343)">
      <title
         id="title6">5320e4072e2744538a3c2a4165d636c4</title>
      <image
         xlink:href="qakicons/symActorSmall.png"
         width="101"
         height="91.146301"
         preserveAspectRatio="xMinYMin"
         x="785"
         y="-342.573"
         id="image6" />
      <text
         text-anchor="middle"
         x="835.5"
         y="-232.10001"
         font-family="Sans-Serif"
         font-size="13px"
         fill="#2d3436"
         id="text6">coldstorageservice</text>
    </g>
    <g
       id="node2"
       class="node"
       transform="translate(-645.797,177.37343)">
      <title
         id="title7">fbc9e5e2232744f98be824fe796a40b6</title>
      <image
         xlink:href="qakicons/symActorSmall.png"
         width="101"
         height="91.146301"
         preserveAspectRatio="xMinYMin"
         x="1101"
         y="-342.573"
         id="image7" />
      <text
         text-anchor="middle"
         x="1151.5"
         y="-232.10001"
         font-family="Sans-Serif"
         font-size="13px"
         fill="#2d3436"
         id="text7">transporttrolley</text>
    </g>
    <g
       id="edge1"
       class="edge"
       inkscape:label="edge1"
       transform="translate(-645.797,177.37343)">
      <title
         id="title8">5320e4072e2744538a3c2a4165d636c4-&gt;fbc9e5e2232744f98be824fe796a40b6</title>
      <path
         fill="none"
         stroke="#ff00ff"
         d="m 886.27,-297 c 0,0 204.59,0 204.59,0"
         id="path8" />
      <polygon
         fill="#ff00ff"
         stroke="#ff00ff"
         points="1100.86,-297 1090.86,-293.5 1090.86,-300.5 "
         id="polygon8" />
      <text
         text-anchor="start"
         x="913"
         y="-301.60001"
         font-family="Sans-Serif"
         font-size="13px"
         fill="#ff00ff"
         id="text8">deposit</text>
      <text
         text-anchor="start"
         x="962"
         y="-301.60001"
         font-family="Sans-Serif"
         font-size="13px"
         fill="#006400"
         id="text9">chargetakentt</text>
      <text
         text-anchor="start"
         x="1060"
         y="-301.60001"
         font-family="Sans-Serif"
         font-size="13px"
         fill="#ff00ff"
         id="text10"> </text>
      <polyline
         fill="none"
         stroke="#ff00ff"
         points="1074,-297 913,-297 993.66,-297 "
         id="polyline10" />
    </g>
    <g
       id="node3"
       class="node"
       transform="translate(-117.6555,22.735304)">
      <title
         id="title10">42907b70a2ad4037a4c3e664121585f6</title>
      <image
         xlink:href="qakicons/symActorSmall.png"
         width="101"
         height="91.146301"
         preserveAspectRatio="xMinYMin"
         x="40"
         y="-342.573"
         id="image10" />
      <text
         text-anchor="middle"
         x="90.5"
         y="-232.10001"
         font-family="Sans-Serif"
         font-size="13px"
         fill="#2d3436"
         id="text11">serviceaccessgui</text>
    </g>
    <g
       id="edge2"
       class="edge"
       transform="translate(-117.6555,22.735304)">
      <title
         id="title11">42907b70a2ad4037a4c3e664121585f6-&gt;5320e4072e2744538a3c2a4165d636c4</title>
      <path
         fill="none"
         stroke="#ff00ff"
         d="m 141.12,-297 c 0,0 336.38325,0 336.38325,0"
         id="path11"
         style="stroke-width:0.728583" />
      <polygon
         fill="#ff00ff"
         stroke="#ff00ff"
         points="784.81,-297 774.81,-293.5 774.81,-300.5 "
         id="polygon11"
         transform="rotate(90,609.47694,-428.6535)" />
      <text
         text-anchor="start"
         x="201"
         y="-301.60001"
         font-family="Sans-Serif"
         font-size="13px"
         fill="#ff00ff"
         id="text12">storerequest</text>
      <text
         text-anchor="start"
         x="286"
         y="-301.60001"
         font-family="Sans-Serif"
         font-size="13px"
         fill="#006400"
         id="text13">loadaccepted loadrejected</text>
      <text
         text-anchor="start"
         x="193.29785"
         y="-284.28589"
         font-family="Sans-Serif"
         font-size="13px"
         fill="#ff00ff"
         id="text14">  chargestatus</text>
      <text
         text-anchor="start"
         x="293.29785"
         y="-284.28589"
         font-family="Sans-Serif"
         font-size="13px"
         fill="#006400"
         id="text15">chargetaken chargefailed</text>
      <text
         text-anchor="start"
         x="744"
         y="-301.60001"
         font-family="Sans-Serif"
         font-size="13px"
         fill="#ff00ff"
         id="text16"> </text>
      <polyline
         fill="none"
         stroke="#ff00ff"
         points="758,-297 201,-297 479.3,-297 "
         id="polyline16"
         transform="matrix(0,0.07597804,-1,0,180.86207,-312.64629)" />
    </g>
    <g
       id="node4"
       class="node"
       transform="translate(-117.6555,22.735304)">
      <title
         id="title16">18abb4d2ffe84464901253ce6c545164</title>
      <image
         xlink:href="qakicons/system.png"
         width="101"
         height="27.6577"
         preserveAspectRatio="xMinYMin"
         x="40"
         y="-130.82899"
         id="image16" />
    </g>
    <g
       id="node5"
       class="node"
       transform="translate(-117.6555,22.735304)">
      <title
         id="title17">89ff512756a84924ab8d45ac34e4ee07</title>
      <image
         xlink:href="qakicons/externalQActor.png"
         width="101"
         height="90.772202"
         preserveAspectRatio="xMinYMin"
         x="40"
         y="-536.38599"
         id="image17" />
      <text
         text-anchor="middle"
         x="90.5"
         y="-426.10001"
         font-family="Sans-Serif"
         font-size="13px"
         fill="#2d3436"
         id="text17">basicrobot(ext)</text>
    </g>
  </g>
</svg>
