<?xml version="1.0" encoding="UTF-8" standalone="no"?>
<!-- Generated by graphviz version 2.43.0 (0)
 -->

<!-- Title: coldstorageservice23Arch Pages: 1 -->

<svg
   width="1550pt"
   height="925pt"
   viewBox="0 0 1550 925"
   version="1.1"
   id="svg21"
   sodipodi:docname="css23modelComplexCSS-TTarch.svg"
   inkscape:version="1.3 (1:1.3+202307231459+0e150ed6c4)"
   inkscape:export-filename="css23modelComplexCSS-TTarch.png"
   inkscape:export-xdpi="96"
   inkscape:export-ydpi="96"
   xmlns:inkscape="http://www.inkscape.org/namespaces/inkscape"
   xmlns:sodipodi="http://sodipodi.sourceforge.net/DTD/sodipodi-0.dtd"
   xmlns:xlink="http://www.w3.org/1999/xlink"
   xmlns="http://www.w3.org/2000/svg"
   xmlns:svg="http://www.w3.org/2000/svg">
  <defs
     id="defs21" />
  <sodipodi:namedview
     id="namedview21"
     pagecolor="#ffffff"
     bordercolor="#000000"
     borderopacity="0.25"
     inkscape:showpageshadow="2"
     inkscape:pageopacity="0.0"
     inkscape:pagecheckerboard="0"
     inkscape:deskcolor="#d1d1d1"
     inkscape:document-units="pt"
     inkscape:zoom="0.32796729"
     inkscape:cx="873.56273"
     inkscape:cy="670.7986"
     inkscape:window-width="1900"
     inkscape:window-height="1002"
     inkscape:window-x="10"
     inkscape:window-y="28"
     inkscape:window-maximized="1"
     inkscape:current-layer="graph0" />
  <g
     id="graph0"
     class="graph"
     transform="translate(144,781)">
    <title
       id="title1">coldstorageservice23Arch</title>
    <polygon
       fill="#ffffff"
       stroke="transparent"
       points="-144,144 -144,-781 1756,-781 1756,144 "
       id="polygon1"
       transform="matrix(0.60429989,0,0,0.76158625,-56.980816,-85.60316)"
       inkscape:export-filename="polygon1.png"
       inkscape:export-xdpi="96"
       inkscape:export-ydpi="96" />
    <!-- 5c86c7a161fb428c901cb5637b99c741 -->
    <!-- 5252494bbd8640a59fc78ebb8cbbfa90 -->
    <!-- 5c86c7a161fb428c901cb5637b99c741&#45;&gt;5252494bbd8640a59fc78ebb8cbbfa90 -->
    <!-- fb03f7332957482b9c2f0419cf9dc369 -->
    <!-- fb03f7332957482b9c2f0419cf9dc369&#45;&gt;5c86c7a161fb428c901cb5637b99c741 -->
    <!-- 1cc9e205f8d941f1be34ea610f5e3748 -->
    <!-- 4511b7b87a3b4fa8bcbee840a3e44a9e -->
    <text
       text-anchor="middle"
       x="442.25864"
       y="-10.543405"
       font-family="Sans-Serif"
       font-size="22px"
       fill="#2d3436"
       id="text1">coldstorageservice23Arch</text>
    <g
       id="clust1"
       class="cluster"
       transform="translate(-86.977219,-0.64447113)">
      <title
         id="title2">cluster_env</title>
      <path
         fill="#e5f5fd"
         stroke="#aeb6be"
         d="m 7.6220452,-629.09887 c 0,0 1016.5869548,0 1016.5869548,0 3.8605,0 7.7209,6.00201 7.7209,12.00403 0,0 0,565.189679 0,565.189679 0,6.00201 -3.8604,12.00403 -7.7209,12.00403 0,0 -1016.5869548,0 -1016.5869548,0 -3.8604569,0 -7.72091384,-6.00202 -7.72091384,-12.00403 0,0 0,-565.189679 0,-565.189679 0,-6.00202 3.86045694,-12.00403 7.72091384,-12.00403"
         id="path2"
         style="stroke-width:0.802263" />
      <text
         text-anchor="middle"
         x="19"
         y="-615.40002"
         font-family="Sans-Serif"
         font-size="12px"
         fill="#2d3436"
         id="text2">env</text>
    </g>
    <g
       id="clust2"
       class="cluster"
       transform="translate(-86.977219,-0.64447113)">
      <title
         id="title3">cluster_ctxbasicrobot</title>
      <path
         fill="#ffffe0"
         stroke="#aeb6be"
         d="m 20,-414 c 0,0 142,0 142,0 6,0 12,-6 12,-12 0,0 0,-162 0,-162 0,-6 -6,-12 -12,-12 0,0 -142,0 -142,0 -6,0 -12,6 -12,12 0,0 0,162 0,162 0,6 6,12 12,12"
         id="path3" />
      <text
         text-anchor="middle"
         x="91"
         y="-578.40002"
         font-family="Sans-Serif"
         font-size="22px"
         fill="#2d3436"
         id="text3">ctxbasicrobot</text>
    </g>
    <g
       id="clust3"
       class="cluster"
       transform="translate(-86.977219,-0.64447113)">
      <title
         id="title4">cluster_ctx_coldstorageservice</title>
      <path
         fill="#ffffe0"
         stroke="#aeb6be"
         d="m 203.84486,-56.765153 c 0,0 794.99996,0 794.99996,0 5.99998,0 11.99998,-6 11.99998,-12 0,0 0,-162.000007 0,-162.000007 0,-6 -6,-12 -11.99998,-12 0,0 -794.99996,0 -794.99996,0 -6,0 -12,6 -12,12 0,0 0,162.000007 0,162.000007 0,6 6,12 12,12"
         id="path4" />
      <text
         text-anchor="middle"
         x="326.34485"
         y="-221.16515"
         font-family="Sans-Serif"
         font-size="22px"
         fill="#2d3436"
         id="text4">ctx_coldstorageservice</text>
    </g>
    <g
       id="clust4"
       class="cluster"
       transform="translate(-86.977219,-0.64447113)">
      <title
         id="title5">cluster_ctx_access</title>
      <path
         fill="#ffffe0"
         stroke="#aeb6be"
         d="m 35,-220 c 0,0 111,0 111,0 6,0 12,-6 12,-12 0,0 0,-162 0,-162 0,-6 -6,-12 -12,-12 0,0 -111,0 -111,0 -6,0 -12,6 -12,12 0,0 0,162 0,162 0,6 6,12 12,12"
         id="path5" />
      <text
         text-anchor="middle"
         x="90.5"
         y="-384.39999"
         font-family="Sans-Serif"
         font-size="22px"
         fill="#2d3436"
         id="text5">ctx_access</text>
    </g>
    <g
       id="node1"
       class="node"
       transform="translate(-86.977219,-0.64447113)">
      <title
         id="title6">5c86c7a161fb428c901cb5637b99c741</title>
      <image
         xlink:href="qakicons/symActorSmall.png"
         width="101"
         height="91.146301"
         preserveAspectRatio="xMinYMin"
         x="199.84485"
         y="-179.33815"
         id="image6" />
      <text
         text-anchor="middle"
         x="250.34485"
         y="-68.865166"
         font-family="Sans-Serif"
         font-size="13px"
         fill="#2d3436"
         id="text6">coldstorageservice</text>
    </g>
    <g
       id="node2"
       class="node"
       transform="translate(-86.977219,-0.64447113)">
      <title
         id="title7">5252494bbd8640a59fc78ebb8cbbfa90</title>
      <image
         xlink:href="qakicons/symActorSmall.png"
         width="101"
         height="91.146301"
         preserveAspectRatio="xMinYMin"
         x="901.84491"
         y="-179.33815"
         id="image7" />
      <text
         text-anchor="middle"
         x="952.34491"
         y="-68.865166"
         font-family="Sans-Serif"
         font-size="13px"
         fill="#2d3436"
         id="text7">transporttrolley</text>
    </g>
    <g
       id="node3"
       class="node"
       transform="translate(-86.977219,-0.64447113)">
      <title
         id="title14">fb03f7332957482b9c2f0419cf9dc369</title>
      <image
         xlink:href="qakicons/symActorSmall.png"
         width="101"
         height="91.146301"
         preserveAspectRatio="xMinYMin"
         x="40"
         y="-342.573"
         id="image14" />
      <text
         text-anchor="middle"
         x="90.5"
         y="-232.10001"
         font-family="Sans-Serif"
         font-size="13px"
         fill="#2d3436"
         id="text15">serviceaccessgui</text>
    </g>
    <g
       id="edge2"
       class="edge"
       transform="translate(-86.977219,-0.64447113)">
      <title
         id="title15">fb03f7332957482b9c2f0419cf9dc369-&gt;5c86c7a161fb428c901cb5637b99c741</title>
      <path
         fill="none"
         stroke="#ff00ff"
         d="m 141.12,-297 462.20585,0.43455"
         id="path15"
         sodipodi:nodetypes="cc" />
      <path
         fill="none"
         stroke="#ff00ff"
         d="m 603.85424,-297.09216 -0.0159,41.85441"
         id="path15-3"
         sodipodi:nodetypes="cc" />
      <polygon
         fill="#ff00ff"
         stroke="#ff00ff"
         points="774.81,-293.5 774.81,-300.5 784.81,-297 "
         id="polygon15"
         transform="rotate(90,668.16924,-361.41914)" />
      <text
         text-anchor="start"
         x="201"
         y="-301.60001"
         font-family="Sans-Serif"
         font-size="13px"
         fill="#ff00ff"
         id="text16">storerequest</text>
      <text
         text-anchor="start"
         x="286"
         y="-301.60001"
         font-family="Sans-Serif"
         font-size="13px"
         fill="#006400"
         id="text17">loadaccepted loadrejected</text>
      <text
         text-anchor="start"
         x="193.31485"
         y="-284.30402"
         font-family="Sans-Serif"
         font-size="13px"
         fill="#ff00ff"
         id="text18">  chargestatus</text>
      <text
         text-anchor="start"
         x="293.31485"
         y="-284.30402"
         font-family="Sans-Serif"
         font-size="13px"
         fill="#006400"
         id="text19">chargetaken chargefailed</text>
      <text
         text-anchor="start"
         x="744"
         y="-301.60001"
         font-family="Sans-Serif"
         font-size="13px"
         fill="#ff00ff"
         id="text20"> </text>
    </g>
    <g
       id="node4"
       class="node"
       transform="translate(-86.977219,-0.64447113)">
      <title
         id="title20">1cc9e205f8d941f1be34ea610f5e3748</title>
      <image
         xlink:href="qakicons/system.png"
         width="101"
         height="27.6577"
         preserveAspectRatio="xMinYMin"
         x="40"
         y="-130.82899"
         id="image20" />
    </g>
    <g
       id="node5"
       class="node"
       transform="translate(-86.977219,-0.64447113)">
      <title
         id="title21">4511b7b87a3b4fa8bcbee840a3e44a9e</title>
      <image
         xlink:href="qakicons/externalQActor.png"
         width="101"
         height="90.772202"
         preserveAspectRatio="xMinYMin"
         x="40"
         y="-536.38599"
         id="image21" />
      <text
         text-anchor="middle"
         x="90.5"
         y="-426.10001"
         font-family="Sans-Serif"
         font-size="13px"
         fill="#2d3436"
         id="text21">basicrobot(ext)</text>
    </g>
    <g
       id="edge1"
       class="edge"
       transform="translate(-90.297867,4.212595)">
      <title
         id="title8">5c86c7a161fb428c901cb5637b99c741-&gt;5252494bbd8640a59fc78ebb8cbbfa90</title>
      <text
         text-anchor="start"
         x="1446"
         y="-301.60001"
         font-family="Sans-Serif"
         font-size="13px"
         fill="#ff00ff"
         id="text14"> </text>
    </g>
    <path
       fill="none"
       stroke="#ff00ff"
       d="m 212.0248,-135.39919 c 0,0 590.30996,0 590.30996,0"
       id="path8" />
    <polygon
       fill="#ff00ff"
       stroke="#ff00ff"
       points="1486.58,-297 1476.58,-293.5 1476.58,-300.5 "
       id="polygon8"
       transform="translate(-673.90301,161.54551)" />
    <text
       text-anchor="start"
       x="238.75476"
       y="-139.99919"
       font-family="Sans-Serif"
       font-size="13px"
       fill="#ff00ff"
       id="text8">toindoor</text>
    <text
       text-anchor="start"
       x="294.75476"
       y="-139.99919"
       font-family="Sans-Serif"
       font-size="13px"
       fill="#006400"
       id="text9">chargetakentt</text>
    <text
       text-anchor="start"
       x="392.75479"
       y="-139.99919"
       font-family="Sans-Serif"
       font-size="13px"
       fill="#ff00ff"
       id="text10">  depositcharge</text>
    <text
       text-anchor="start"
       x="501.75479"
       y="-139.99919"
       font-family="Sans-Serif"
       font-size="13px"
       fill="#006400"
       id="text11">chargedeposited</text>
    <text
       text-anchor="start"
       x="617.75482"
       y="-139.99919"
       font-family="Sans-Serif"
       font-size="13px"
       fill="#ff00ff"
       id="text12">  returnhome</text>
    <text
       text-anchor="start"
       x="709.75488"
       y="-139.99919"
       font-family="Sans-Serif"
       font-size="13px"
       fill="#006400"
       id="text13">returned</text>
  </g>
</svg>
